<?xml version="1.0" standalone="no"?><!DOCTYPE svg PUBLIC "-//W3C//DTD SVG 1.1//EN" "http://www.w3.org/Graphics/SVG/1.1/DTD/svg11.dtd"><svg t="1597659104410" class="icon" viewBox="0 0 1024 1024" version="1.1" xmlns="http://www.w3.org/2000/svg" p-id="6222" xmlns:xlink="http://www.w3.org/1999/xlink" width="200" height="200"><defs><style type="text/css"></style></defs><path d="M786.95992889 320.38178764L643.91344987 149.76164346c-3.88361482-4.66033778-9.5795832-7.37886815-15.66391307-7.37886816H281.70164148c-40.13068642 0-72.88250469 32.8812721-72.88250468 73.27086618V788.35737283c0 40.38959408 32.75181827 73.27086617 72.88250468 73.27086619h437.16557433c40.13068642 0 72.88250469-32.8812721 72.88250469-73.27086619V333.58607802c0-4.78979161-1.68289975-9.45012939-4.78979161-13.20429038zM750.84231111 788.35737283c0 17.86462815-14.36937482 32.3634568-31.9750953 32.3634568H281.70164148c-17.6057205 0-31.97509531-14.49882864-31.97509531-32.3634568V215.65364148c0-17.86462815 14.36937482-32.3634568 31.97509531-32.36345679h336.9683121l132.17235753 157.67476147V788.35737283z" fill="#FF3333" p-id="6223"></path><path d="M371.15423605 338.2464158h257.09530075v40.90740938H371.15423605zM371.15423605 490.48411653h257.09530075v40.90740939H371.15423605zM371.15423605 642.72181728h184.21279605v40.90740938H371.15423605z" fill="#FF3333" p-id="6224"></path></svg>